Coordinates
version=1
nRows=8
nColumns=34
inDegrees=yes

Units are S.I. units (second, meters, Newtons, ...)
If the header above contains a line with 'inDegrees', this indicates whether rotational values are in degrees (yes) or radians (no).

endheader
time	pelvis_tilt	pelvis_list	pelvis_rotation	pelvis_tx	pelvis_ty	pelvis_tz	hip_flexion_r	hip_adduction_r	hip_rotation_r	knee_angle_r	ankle_angle_r	subtalar_angle_r	mtp_angle_r	hip_flexion_l	hip_adduction_l	hip_rotation_l	knee_angle_l	ankle_angle_l	subtalar_angle_l	mtp_angle_l	lumbar_extension	lumbar_bending	lumbar_rotation	arm_flex_r	arm_add_r	arm_rot_r	elbow_flex_r	pro_sup_r	arm_flex_l	arm_add_l	arm_rot_l	elbow_flex_l	pro_sup_l
      8.91666670	      9.15585352	     -0.34330119	     -3.74320928	      0.38437106	      0.75383940	      0.07890945	     30.07429997	      6.98240672	     -5.22826228	     75.55204238	     41.19694852	      0.83941138	      0.00000000	     45.99266659	    -12.50579794	      0.93682001	     14.88289851	      6.61461670	     -3.15500898	      0.00000000	    -34.46665183	      4.69594677	      3.98943111	    101.97283911	     -0.77211920	     60.58611884	    122.34902349	     97.58109696	    106.18348500	     -5.17556349	     69.77081857	    128.11249791	     93.48803304
      8.93333330	      9.23796859	     -0.24299006	     -3.76299563	      0.38379977	      0.75215518	      0.07755410	     30.60631098	      6.66389371	     -5.35955936	     76.41737031	     41.14251964	      0.87765252	      0.00000000	     46.05147991	    -12.46653132	      0.94329207	     15.16541113	      6.64943814	     -3.17504062	      0.00000000	    -34.85103951	      4.92480083	      4.37172189	    101.96672204	     -0.84130551	     60.67398420	    122.40451553	     97.55655554	    106.15776741	     -5.07453649	     69.55733468	    128.23917179	     93.43340687
      8.95000000	      8.84430247	     -0.26699831	     -3.84569712	      0.38180929	      0.74908615	      0.07849155	     31.58626210	      6.61033149	     -5.55473885	     77.25817944	     41.20652457	      1.13507865	      0.00000000	     46.49615366	    -12.72227018	      0.79911661	     15.23203854	      6.57967369	     -2.96353988	      0.00000000	    -35.06466060	      5.18751533	      5.00600543	    102.82892864	     -1.04704633	     60.99214669	    122.75992875	     97.47528826	    106.27640279	     -4.53470060	     69.01061186	    128.76993389	     93.28519627
      8.96666670	      8.83594187	     -0.25801427	     -3.87438594	      0.38086535	      0.74550970	      0.07799165	     32.19886401	      6.52494560	     -5.70671897	     78.07025383	     41.30876139	      1.01678439	      0.00000000	     46.51257936	    -12.80530723	      0.90419125	     15.10311609	      6.61470348	     -2.87934434	      0.00000000	    -35.50325780	      5.40474141	      5.41069716	    102.89225621	     -1.03733685	     61.13214718	    122.91385774	     97.45225317	    106.32610694	     -4.65610895	     68.97738622	    128.81372359	     93.25360078
      8.98333330	      8.55699394	     -0.33356546	     -4.02237899	      0.38023526	      0.73913374	      0.07643695	     32.92149842	      6.64422790	     -5.72796483	     78.85958261	     41.84989006	      1.10167656	      0.00000000	     47.12765742	    -12.99355899	      0.88167756	     15.36048549	      6.69700843	     -2.74151716	      0.00000000	    -35.71576472	      5.59485464	      5.44440893	    103.71268036	     -0.91681080	     61.17129563	    123.02636270	     97.38994960	    106.73765655	     -5.18347521	     68.85780936	    128.07522466	     93.17285102
      9.00000000	      8.39155071	     -0.35419485	     -4.15030640	      0.38051900	      0.73469662	      0.07530407	     33.64789479	      6.57714357	     -5.70839380	     79.91924189	     42.61681995	      0.84899565	      0.00000000	     47.44171060	    -13.11590802	      1.06593495	     15.53476753	      6.92314167	     -2.76743627	      0.00000000	    -35.77528828	      5.82835944	      5.66532984	    104.15671408	     -0.67938480	     61.32347199	    122.93130471	     97.33278990	    107.06818824	     -5.01676221	     68.69173857	    127.47476222	     93.07984515
      9.01666670	      8.25685006	     -0.29092659	     -4.20851476	      0.38015144	      0.73158134	      0.07374670	     34.25918996	      6.40324470	     -5.65031721	     80.72261357	     43.16033086	      0.72786650	      0.00000000	     47.60149156	    -13.04493628	      1.20052979	     15.48453388	      7.10169502	     -2.87323112	      0.00000000	    -35.87501381	      6.12585861	      5.97721975	    104.35527451	     -0.53616780	     61.38235489	    122.75479186	     97.29432980	    107.21328625	     -4.64421703	     68.66481028	    127.12764143	     93.02199008
      9.03333330	      7.98691293	     -0.45758650	     -4.42958744	      0.37951265	      0.73390346	      0.07344662	     34.65138686	      6.62607446	     -5.48233898	     80.79900928	     43.14338197	      1.24486508	      0.00000000	     47.59561809	    -13.33143081	      0.99548193	     15.25227238	      6.84100901	     -3.10636245	      0.00000000	    -36.00741227	      6.28429874	      6.19935353	    104.17264066	     -0.54701973	     61.60567307	    122.65797992	     97.25157357	    107.00606404	     -4.17868592	     68.74656972	    127.17106407	     92.95800852
